<?xml version="1.0" encoding="UTF-8" standalone="no"?>
<svg
   version="1.2"
   viewBox="0 0 11 11"
   overflow="inherit"
   id="svg8"
   sodipodi:docname="atm-11.svg"
   width="11"
   height="11"
   inkscape:version="1.2.1 (9c6d41e410, 2022-07-14)"
   xmlns:inkscape="http://www.inkscape.org/namespaces/inkscape"
   xmlns:sodipodi="http://sodipodi.sourceforge.net/DTD/sodipodi-0.dtd"
   xmlns="http://www.w3.org/2000/svg"
   xmlns:svg="http://www.w3.org/2000/svg">
  <defs
     id="defs12" />
  <sodipodi:namedview
     id="namedview10"
     pagecolor="#ffffff"
     bordercolor="#666666"
     borderopacity="1.0"
     inkscape:showpageshadow="2"
     inkscape:pageopacity="0.0"
     inkscape:pagecheckerboard="0"
     inkscape:deskcolor="#d1d1d1"
     showgrid="false"
     inkscape:zoom="28.88738"
     inkscape:cx="-2.3885863"
     inkscape:cy="14.67769"
     inkscape:window-width="2560"
     inkscape:window-height="1371"
     inkscape:window-x="0"
     inkscape:window-y="32"
     inkscape:window-maximized="1"
     inkscape:current-layer="svg8" />
  <g
     id="g185"
     transform="translate(-0.085173,-0.05647119)">
    <path
       d="M 9.3256325,4.8668195 8.7643895,2.5237448 c -0.0981,-0.408384 -0.513331,-0.6661907 -0.923997,-0.5635243 -0.360473,0.088977 -0.536147,0.3376583 -0.609154,0.5156133 -0.08441,0.2076142 -0.460858,1.1498634 -0.547554,1.3437887 -0.02966,0.068444 -0.09582,0.1026664 -0.109511,0.1095108 -0.07529,0.031941 -0.82133,0.3490657 -0.82133,0.3490657 v 0.00228 c -0.148296,0.068444 -0.248681,0.2167401 -0.248681,0.3878507 0,0.2372734 0.193925,0.4311988 0.435761,0.4311988 0.05247,0 0.100385,-0.011407 0.148296,-0.027378 v 0.00228 l 0.992442,-0.4129469 c 0.136888,-0.063881 0.203051,-0.1437329 0.269214,-0.2600882 0.02738,-0.050192 0.114074,-0.2555252 0.184799,-0.4243543 l 0.597747,2.502778 v 3.8762259 c 0,0.385569 0.264651,0.698131 0.654783,0.700413 0.390132,0.0023 0.670754,-0.310281 0.673035,-0.69585 0,0 0.0046,-4.3598986 0.0046,-4.5743573 0,-0.2144586 -0.0867,-0.725509 -0.134607,-0.9148714 z"
       id="path2"
       style="stroke-width:0.228147" />
    <path
       d="m 3.7862115,8.3369429 v 0.9764714 c 0.127763,-0.02281 0.228148,-0.082133 0.307999,-0.1733923 0.07985,-0.09354 0.118637,-0.2007697 0.118637,-0.3262509 0,-0.1117922 -0.03194,-0.2076142 -0.0981,-0.2897473 -0.06616,-0.079852 -0.175674,-0.1414514 -0.328533,-0.1870809 z M 3.1839023,6.819762 c -0.059318,0.079852 -0.088978,0.1688292 -0.088978,0.2646511 0,0.088978 0.027378,0.1711107 0.079852,0.2463993 0.054755,0.075289 0.1368884,0.1368885 0.2441178,0.1847995 V 6.6486514 C 3.3207911,6.6828734 3.2409391,6.7399104 3.1816208,6.819762 Z M 5.5041625,5.6607728 v 0 L 4.1421215,2.9252844 v 0.00228 C 4.0417365,2.7199516 3.8295595,2.5785002 3.5831604,2.5785002 H 2.3260677 c -0.3422213,0 -0.6205612,0.2760584 -0.6205612,0.6159982 v 7.8573996 h 3.871663 V 5.9687719 c 0,-0.1095108 -0.0251,-0.2144586 -0.07073,-0.3079991 z m -0.946812,3.8260335 c -0.1848,0.207614 -0.440325,0.333095 -0.768857,0.381006 V 10.335515 H 3.4211756 V 9.8792203 C 3.1291469,9.8449973 2.8941549,9.7354873 2.7116369,9.5575323 2.5291189,9.3772953 2.4150452,9.1217702 2.3625713,8.7932379 l 0.6593462,-0.070726 c 0.027378,0.1346071 0.07757,0.2486808 0.1528589,0.3467842 0.073007,0.095822 0.1574217,0.1665477 0.2463992,0.209896 V 8.2297136 C 3.0903618,8.1361731 2.8485254,7.9947216 2.6956666,7.8053592 2.5405263,7.6159968 2.4652376,7.3855678 2.4652376,7.1163538 c 0,-0.273777 0.086696,-0.504206 0.2623697,-0.6890054 C 2.9009994,6.2425489 3.1337098,6.1330381 3.4234571,6.1056604 V 5.8569796 h 0.3673174 v 0.2486808 c 0.266933,0.031941 0.481391,0.1231996 0.638813,0.2714955 0.157422,0.1482959 0.260088,0.3490657 0.303436,0.6000279 l -0.638813,0.082133 C 4.0554255,6.8631101 3.9550405,6.7285031 3.7907745,6.6577773 v 0.9787528 c 0.403821,0.1095108 0.67988,0.2486807 0.825894,0.4220728 0.146014,0.1733921 0.219022,0.3946952 0.219022,0.6639092 0,0.3011547 -0.09126,0.5566802 -0.276059,0.7642942 z"
       id="path4"
       style="stroke-width:0.228147" />
    <path
       d="m 6.2753005,0.9723418 a 0.88064932,0.87152342 0 1 0 1.759017,0 0.88064932,0.87152342 0 1 0 -1.759017,0 z"
       id="path6"
       style="stroke-width:0.228147" />
  </g>
</svg>
