<?xml version="1.0" encoding="UTF-8" standalone="no"?>
<svg
   viewBox="0 0 11 11"
   version="1.1"
   id="svg4"
   sodipodi:docname="bicycle_parking-11.svg"
   width="11"
   height="11"
   inkscape:version="1.2.1 (9c6d41e410, 2022-07-14)"
   xmlns:inkscape="http://www.inkscape.org/namespaces/inkscape"
   xmlns:sodipodi="http://sodipodi.sourceforge.net/DTD/sodipodi-0.dtd"
   xmlns="http://www.w3.org/2000/svg"
   xmlns:svg="http://www.w3.org/2000/svg">
  <defs
     id="defs8" />
  <sodipodi:namedview
     id="namedview6"
     pagecolor="#ffffff"
     bordercolor="#666666"
     borderopacity="1.0"
     inkscape:showpageshadow="2"
     inkscape:pageopacity="0.0"
     inkscape:pagecheckerboard="0"
     inkscape:deskcolor="#d1d1d1"
     showgrid="false"
     inkscape:zoom="15.733333"
     inkscape:cx="7.4682203"
     inkscape:cy="7.5"
     inkscape:window-width="2560"
     inkscape:window-height="1371"
     inkscape:window-x="0"
     inkscape:window-y="32"
     inkscape:window-maximized="1"
     inkscape:current-layer="svg4" />
  <path
     d="m 6.3461538,1.0577233 h 0.8461539 c 0.2369231,0 0.4230769,0.1861538 0.4230769,0.4230769 v 1.5146154 l 0.6176923,0.6176923 c 1.0746151,0.1015384 1.9207691,0.9984615 1.9207691,2.0984615 0,1.1592308 -0.956154,2.1153846 -2.1153845,2.1153846 -1.1592307,0 -2.1153846,-0.9561538 -2.1153846,-2.1153846 0,-0.8630769 0.5246154,-1.6076923 1.2692308,-1.9376923 L 6.8538462,3.426954 l -2.09,1.193077 c 0.1946153,0.3215384 0.3130769,0.6938461 0.3130769,1.0915384 0,1.1592308 -0.9561539,2.1153846 -2.1153846,2.1153846 -1.1592308,0 -2.1153847,-0.9561538 -2.1153847,-2.1153846 0,-1.1592308 0.9561539,-2.1153846 2.1153847,-2.1153846 0.1692307,0 0.3384615,0.025385 0.4992307,0.067692 L 3.0969231,2.750031 H 2.9023077 c -0.5753846,0.00846 -0.5753846,-0.8546154 0,-0.8461539 h 1.7092308 c 0.5753846,-0.00846 0.5753846,0.8546154 0,0.8461539 H 4.0107692 L 4.4423077,3.8331079 6.7692308,2.5046463 V 1.9038771 h -0.423077 c -0.5753846,0.00846 -0.5753846,-0.8546154 0,-0.8461538 z M 2.9615385,4.4423386 c -0.7023077,0 -1.2692308,0.5669231 -1.2692308,1.2692308 0,0.7023077 0.5669231,1.2692308 1.2692308,1.2692308 0.7023077,0 1.2692307,-0.5669231 1.2692307,-1.2692308 0,-0.7023077 -0.566923,-1.2692308 -1.2692307,-1.2692308 z m 5.076923,0 c -0.7023077,0 -1.2692307,0.5669231 -1.2692307,1.2692308 0,0.7023077 0.566923,1.2692308 1.2692307,1.2692308 0.7023077,0 1.2692305,-0.5669231 1.2692305,-1.2692308 0,-0.7023077 -0.5669228,-1.2692308 -1.2692305,-1.2692308 z M 8.8846154,9.0961845 8.4615385,8.250031 H 10.153846 L 11,9.9423385 H 0 L 0.8461538,8.250031 H 2.5384615 L 2.1153846,9.0961845 Z"
     id="path2"
     style="stroke-width:0.846154" />
</svg>
