<svg xmlns="http://www.w3.org/2000/svg" width="11" height="11">
  <path d="M3.125.275c-.95 0-1.9.504-1.9 1.9V9.3s0 .475.475.475l.475.015v.46s0 .475.475.475h.475s.475 0 .475-.475v-.46l3.8-.015v.475s0 .475.475.475h.475c.475 0 .475-.475.475-.475v-.46l.475-.015s.475 0 .475-.475V2.175c0-1.425-.95-1.9-1.9-1.9zm0 1.9h4.75c.95 0 .95.95.95.95v1.9s0 .95-.95.95h-4.75c-.95 0-.95-.95-.95-.95v-1.9s0-.95.95-.95zM2.888 7.4c.95 0 .95 1.425 0 1.425s-.95-1.425 0-1.425zm5.224 0c.95 0 .95 1.425 0 1.425s-.95-1.425 0-1.425z"/>
</svg>
