<svg xmlns="http://www.w3.org/2000/svg" width="11" height="11">
  <path d="m 3.3625,0.7975 c -0.855,0 -1.71,0.4536 -1.71,1.71 V 8.92 c 0,0 0,0.4275 0.4275,0.4275 L 2.5075,9.361 v 0.414 c 0,0 0,0.4275 0.4275,0.4275 h 0.4275 c 0,0 0.4275,0 0.4275,-0.4275 V 9.361 L 7.21,9.3475 V 9.775 c 0,0 0,0.4275 0.4275,0.4275 H 8.065 c 0.4275,0 0.4275,-0.4275 0.4275,-0.4275 V 9.361 L 8.92,9.3475 c 0,0 0.4275,0 0.4275,-0.4275 V 2.5075 c 0,-1.2825 -0.855,-1.71 -1.71,-1.71 z m 0,1.71 h 4.275 c 0.855,0 0.855,0.855 0.855,0.855 v 1.71 c 0,0 0,0.855 -0.855,0.855 h -4.275 c -0.855,0 -0.855,-0.855 -0.855,-0.855 v -1.71 c 0,0 0,-0.855 0.855,-0.855 z M 3.1492,7.21 c 0.855,0 0.855,1.2825 0,1.2825 -0.855,0 -0.855,-1.2825 0,-1.2825 z m 4.7016,0 c 0.855,0 0.855,1.2825 0,1.2825 -0.855,0 -0.855,-1.2825 0,-1.2825 z"/>
</svg>
