<svg data-name="Layer 1" xmlns="http://www.w3.org/2000/svg" width="11" height="11">
    <path d="M9.5 3H9V1.5a.5.5 0 0 0-1 0V3a1 1 0 0 0 1 1v4.25a.25.25 0 0 1-.5 0V6.5A1.5 1.5 0 0 0 7 5V2a1 1 0 0 0-1-1H2a1 1 0 0 0-1 1v7a1 1 0 0 0 1 1h4a1 1 0 0 0 1-1V6a.5.5 0 0 1 .5.5v1.75a1.25 1.25 0 0 0 2.5 0V3.5a.5.5 0 0 0-.5-.5zM3.19 8.834L4 6H2.362a.251.251 0 0 1-.235-.339l1.312-3.5A.251.251 0 0 1 3.674 2h1.478a.251.251 0 0 1 .238.33L4.5 5h1.573a.251.251 0 0 1 .219.373L4.149 9.231a.522.522 0 0 1-.457.269.522.522 0 0 1-.502-.666z" data-name="Layer 12"/>
</svg>
