<?xml version="1.0" encoding="UTF-8" standalone="no"?>
<svg
   viewBox="0 0 11 11"
   version="1.1"
   id="svg4"
   sodipodi:docname="checkpoint-11.svg"
   width="11"
   height="11"
   inkscape:version="1.2.1 (9c6d41e410, 2022-07-14)"
   xmlns:inkscape="http://www.inkscape.org/namespaces/inkscape"
   xmlns:sodipodi="http://sodipodi.sourceforge.net/DTD/sodipodi-0.dtd"
   xmlns="http://www.w3.org/2000/svg"
   xmlns:svg="http://www.w3.org/2000/svg">
  <defs
     id="defs8" />
  <sodipodi:namedview
     id="namedview6"
     pagecolor="#ffffff"
     bordercolor="#666666"
     borderopacity="1.0"
     inkscape:showpageshadow="2"
     inkscape:pageopacity="0.0"
     inkscape:pagecheckerboard="0"
     inkscape:deskcolor="#d1d1d1"
     showgrid="false"
     inkscape:zoom="15.733333"
     inkscape:cx="7.5"
     inkscape:cy="7.5"
     inkscape:window-width="2560"
     inkscape:window-height="1371"
     inkscape:window-x="0"
     inkscape:window-y="32"
     inkscape:window-maximized="1"
     inkscape:current-layer="svg4" />
  <path
     d="m 10.5,5.1153846 v 5.0000004 c 0,0 0,0 0,0 C 10.5,10.330769 10.323077,10.5 10.115385,10.5 L 5.8846154,10.484615 Z M 5.1153846,10.115385 V 6.6538462 H 1.2692308 C 0.84615381,6.6538462 0.5,6.3076923 0.5,5.8846154 0.5,5.4615385 0.84615381,5.1153846 1.2692308,5.1153846 h 8.076923 z M 9.730769,2.4230769 c 0,1.0615385 -0.8615382,1.9230769 -1.9230767,1.9230769 -1.0615385,0 -1.9230769,-0.8615384 -1.9230769,-1.9230769 C 5.8846154,1.3615385 6.7461538,0.5 7.8076923,0.5 8.8692308,0.5 9.730769,1.3615385 9.730769,2.4230769 Z"
     id="path2"
     style="stroke-width:0.769231" />
</svg>
