<svg xmlns="http://www.w3.org/2000/svg" height="11" width="11">
    <path visibility="hidden" fill="none" d="M0-3h14v14H0z"/>
    <path d="M9.019 1.863c0 .651-.519 1.179-1.158 1.179-.64 0-1.158-.528-1.158-1.179 0-.65.519-1.178 1.158-1.178.64 0 1.158.527 1.158 1.178zM2.36 4.613h1.571V6.97H2.361zm1.943-2.75c0 .651-.518 1.179-1.157 1.179-.64 0-1.158-.528-1.158-1.179 0-.65.518-1.178 1.158-1.178.64 0 1.157.527 1.157 1.178zm-4.3 1.964h5.5v.786h-5.5zm.786 6.286L2.36 6.97h.787l-1.572 3.143zm4.714 0L3.932 6.97h-.785l1.571 3.143zm1.571-5.5h1.572V6.97H7.075zm-1.571-.786h5.5v.786h-5.5zm0 6.286L7.075 6.97h.786L6.29 10.113zm4.714 0L8.647 6.97H7.86l1.571 3.143z" fill-rule="evenodd"/>
</svg>
