<?xml version="1.0" encoding="UTF-8" standalone="no"?>
<!-- Created with Inkscape (http://www.inkscape.org/) -->

<svg
   xmlns:dc="http://purl.org/dc/elements/1.1/"
   xmlns:cc="http://creativecommons.org/ns#"
   xmlns:rdf="http://www.w3.org/1999/02/22-rdf-syntax-ns#"
   xmlns:svg="http://www.w3.org/2000/svg"
   xmlns="http://www.w3.org/2000/svg"
   xmlns:sodipodi="http://sodipodi.sourceforge.net/DTD/sodipodi-0.dtd"
   xmlns:inkscape="http://www.inkscape.org/namespaces/inkscape"
   version="1.1"
   width="11"
   height="11"
   viewBox="0 0 11 11"
   id="svg2"
   inkscape:version="0.91 r13725"
   sodipodi:docname="courthouse-15.svg">
  <sodipodi:namedview
     pagecolor="#ffffff"
     bordercolor="#666666"
     borderopacity="1"
     objecttolerance="10"
     gridtolerance="10"
     guidetolerance="10"
     inkscape:pageopacity="0"
     inkscape:pageshadow="2"
     inkscape:window-width="1920"
     inkscape:window-height="1016"
     id="namedview7"
     showgrid="false"
     fit-margin-top="0"
     fit-margin-left="0"
     fit-margin-right="0"
     fit-margin-bottom="0"
     inkscape:zoom="16.857143"
     inkscape:cx="5.6186441"
     inkscape:cy="5.3813559"
     inkscape:window-x="0"
     inkscape:window-y="27"
     inkscape:window-maximized="1"
     inkscape:current-layer="svg2" />
  <metadata
     id="metadata8">
    <rdf:RDF>
      <cc:Work
         rdf:about="">
        <dc:format>image/svg+xml</dc:format>
        <dc:type
           rdf:resource="http://purl.org/dc/dcmitype/StillImage" />
        <dc:title></dc:title>
      </cc:Work>
    </rdf:RDF>
  </metadata>
  <defs
     id="defs6" />
  <rect
     width="14"
     height="14"
     x="-1.5"
     y="-1.5"
     id="canvas"
     style="visibility:hidden;fill:none;stroke:none" />
  <path
     d="M 5.5,0 C 4.7142857,0 4.7142857,0.7857143 4.7142857,0.7857143 l -2.9464286,0.7857143 0,0.7857143 L 0,6.2857143 c 0,0.7857143 0.622292,1.5714286 1.9642857,1.5714286 1.3419937,0 1.9642857,-0.7857143 1.9642857,-1.5714286 l -1.7678571,-3.9285714 2.5535714,0 0,7.8571431 -3.1428571,0 L 0.7857143,11 l 9.4285717,0 -0.785715,-0.785714 -3.1428567,0 0,-7.8571431 2.5535717,0 -1.7678574,3.9285714 c 0,0.7857143 0.60731,1.5714286 1.9642854,1.5714286 C 10.39269,7.8571429 11,7.0714286 11,6.2857143 l -1.767857,-3.9285714 0,-0.7857143 L 6.2857143,0.7857143 C 6.2857143,0.7857143 6.2857143,0 5.5,0 Z m -3.5357143,3.1428571 1.375,3.1428572 -2.75,0 z m 7.0714283,0 1.375,3.1428572 -2.7499997,0 z"
     id="courthouse"
     inkscape:connector-curvature="0" />
</svg>
