<?xml version="1.0" encoding="UTF-8" standalone="no"?>
<svg
   viewBox="0 0 11 11"
   version="1.1"
   id="svg4"
   sodipodi:docname="cycle_barrier-11.svg"
   width="11"
   height="11"
   inkscape:version="1.2.1 (9c6d41e410, 2022-07-14)"
   xmlns:inkscape="http://www.inkscape.org/namespaces/inkscape"
   xmlns:sodipodi="http://sodipodi.sourceforge.net/DTD/sodipodi-0.dtd"
   xmlns="http://www.w3.org/2000/svg"
   xmlns:svg="http://www.w3.org/2000/svg">
  <defs
     id="defs8" />
  <sodipodi:namedview
     id="namedview6"
     pagecolor="#ffffff"
     bordercolor="#666666"
     borderopacity="1.0"
     inkscape:showpageshadow="2"
     inkscape:pageopacity="0.0"
     inkscape:pagecheckerboard="0"
     inkscape:deskcolor="#d1d1d1"
     showgrid="false"
     inkscape:zoom="15.733333"
     inkscape:cx="7.4682203"
     inkscape:cy="7.5"
     inkscape:window-width="2560"
     inkscape:window-height="1371"
     inkscape:window-x="0"
     inkscape:window-y="32"
     inkscape:window-maximized="1"
     inkscape:current-layer="svg4" />
  <path
     d="M 1.4446667,5.8666666 H 4.4 V 4.4 C 4.4,4.3046666 4.378,4.2093333 4.3486667,4.1286666 Z m 2.244,-2.2 c -0.00733,0 -0.014667,0 -0.022,0 h -2.2 C 1.0633333,3.6666666 0.73333333,3.9966667 0.73333333,4.4 v 1.0413333 z m 3.6226666,2.2 H 10.266667 V 4.4 c 0,-0.095333 -0.022,-0.1906667 -0.05133,-0.2713333 z m 2.244,-2.2 c -0.00733,0 -0.014667,0 -0.022,0 h -2.2 C 6.93,3.6666666 6.6,3.9966667 6.6,4.4 V 5.4413333 Z M 4.4,6.6 H 0.73333333 V 8.0666667 H 0 V 4.4 C 0,3.5933334 0.66,2.9333334 1.4666667,2.9333334 h 2.2 c 0.8066666,0 1.4666666,0.66 1.4666666,1.4666666 V 8.0666667 H 4.4 Z m 5.866667,0 H 6.6 V 8.0666667 H 5.8666667 V 4.4 c 0,-0.8066666 0.66,-1.4666666 1.4666666,-1.4666666 h 2.2 C 10.34,2.9333334 11,3.5933334 11,4.4 v 3.6666667 h -0.733333 z"
     id="path2"
     style="stroke-width:0.733333" />
</svg>
