<?xml version="1.0" encoding="UTF-8" standalone="no"?>
<svg
   viewBox="0 0 11 11"
   version="1.1"
   id="svg4"
   sodipodi:docname="lift_gate-11.svg"
   width="11"
   height="11"
   inkscape:version="1.2.1 (9c6d41e410, 2022-07-14)"
   xmlns:inkscape="http://www.inkscape.org/namespaces/inkscape"
   xmlns:sodipodi="http://sodipodi.sourceforge.net/DTD/sodipodi-0.dtd"
   xmlns="http://www.w3.org/2000/svg"
   xmlns:svg="http://www.w3.org/2000/svg">
  <defs
     id="defs8" />
  <sodipodi:namedview
     id="namedview6"
     pagecolor="#ffffff"
     bordercolor="#666666"
     borderopacity="1.0"
     inkscape:showpageshadow="2"
     inkscape:pageopacity="0.0"
     inkscape:pagecheckerboard="0"
     inkscape:deskcolor="#d1d1d1"
     showgrid="false"
     inkscape:zoom="15.733333"
     inkscape:cx="7.4682203"
     inkscape:cy="7.5"
     inkscape:window-width="2560"
     inkscape:window-height="1371"
     inkscape:window-x="0"
     inkscape:window-y="32"
     inkscape:window-maximized="1"
     inkscape:current-layer="svg4" />
  <path
     d="M 2.8502715,4.1346005 9.7199379,0.16640805 11,2.3851823 4.2668735,6.2680372 V 10.833592 H 0 V 6.140031 C 0,4.9623739 0.95577967,4.0065942 2.1334368,4.0065942 c 0.2560124,0 0.4949573,0.042669 0.7168347,0.1280063 z M 3.6609775,4.655159 C 3.8572537,4.8514352 4.0193949,5.0989139 4.1217998,5.3719938 L 5.4018619,4.6295577 4.9751746,3.8956556 Z M 6.1442979,4.2028705 7.6206362,3.3494958 7.1939488,2.6155935 5.7176106,3.4689682 Z M 8.3545384,2.9228084 9.8394104,2.0694337 9.412723,1.3355314 7.927851,2.1889062 Z M 2.1334368,6.9934057 c 0.4693561,0 0.8533747,-0.3840186 0.8533747,-0.8533747 0,-0.469356 -0.3840186,-0.8533746 -0.8533747,-0.8533746 -0.4693561,0 -0.8533747,0.3840186 -0.8533747,0.8533746 0,0.4693561 0.3840186,0.8533747 0.8533747,0.8533747 z"
     id="path2"
     style="stroke-width:0.853375" />
</svg>
