<svg xmlns="http://www.w3.org/2000/svg" width="11" height="11">
    <path d="M3.882 3.647L4.4 7.4s0 .733.733.733h.734c.733 0 .733-.733.733-.733l.518-3.753c0-1.014-1.618-1.014-1.618-1.014s-1.62 0-1.618 1.014zM2.567 4.1c-1.1 0-1.1.733-1.1.733L2.2 7.767h1.1c.554 0 .582-.561.582-.561L3.3 4.1h-.733zM1.1 5.933s-.453-.021-.776.302C0 6.56 0 6.882 0 6.882V8.5h.647c.82 0 .82-.733.82-.733L1.1 5.933zM8.433 4.1c1.1 0 1.1.733 1.1.733L8.8 7.767H7.7c-.554 0-.582-.561-.582-.561L7.7 4.1h.733zM9.9 5.933s.453-.021.776.302c.324.324.324.647.324.647V8.5h-.647c-.82 0-.82-.733-.82-.733L9.9 5.933z"/>
</svg>
