<svg xmlns="http://www.w3.org/2000/svg" height="11" width="11" version="1">
    <path visibility="hidden" fill="none" d="M0 0h11v11H0z"/>
    <path d="M4.714 0h1.572c1.571 0 2.357 0 2.357.786v.785H2.357V.786C2.357 0 3.143 0 4.714 0zM3.143 2.357c0 1.572-1.189.786-1.179 2.357l.025 3.929c.005.786.368 2.357 1.94 2.357H7.07c1.572 0 1.965-1.571 1.965-2.357V4.714c0-1.571-1.179-.785-1.179-2.357H3.143zM5.5 5.5c.819 0 2.457.477 2.457.477v2.189s-1.638.477-2.457.477-2.457-.477-2.457-.477V5.977S4.681 5.5 5.5 5.5z" fill-rule="evenodd"/>
</svg>
