<svg xmlns="http://www.w3.org/2000/svg" width="11" height="11">
    <path d="M5.552 0c-.5 0-1 .126-1.448.379a2.85 2.85 0 0 0-1.46 2.412H1.177l-.391 7.402V11h9.479L9.83 2.791H8.46A2.85 2.85 0 0 0 7 .38 2.95 2.95 0 0 0 5.552 0zm0 1.2c.298 0 .595.075.861.224.513.289.826.805.847 1.367H3.844a1.64 1.64 0 0 1 .847-1.367c.266-.15.564-.224.861-.224zm-.235 2.887c.61 0 1.057.119 1.343.356.286.236.428.52.428.85 0 .185-.043.362-.132.532-.086.17-.191.309-.314.415a7.295 7.295 0 0 1-.662.472c.264.264.538.51.824.737.077-.153.143-.315.197-.485l1.175.262a4.316 4.316 0 0 1-.178.522 4.47 4.47 0 0 1-.24.462l.566.388c.069.045.158.098.267.16l-.81.931a6.419 6.419 0 0 1-.463-.273c-.157-.103-.299-.193-.425-.267a3.003 3.003 0 0 1-.784.378 4.31 4.31 0 0 1-1.235.162c-.722 0-1.26-.15-1.613-.45-.353-.301-.528-.666-.528-1.095 0-.308.103-.6.31-.873.207-.276.547-.508 1.018-.698a2.675 2.675 0 0 1-.407-.622 1.393 1.393 0 0 1-.11-.54c0-.385.145-.7.438-.95.294-.249.739-.374 1.335-.374zm.063.813a.528.528 0 0 0-.373.133.415.415 0 0 0-.144.315c0 .153.136.375.407.666.195-.106.345-.22.451-.344.106-.125.158-.245.158-.356a.373.373 0 0 0-.132-.291.523.523 0 0 0-.367-.123zm-.647 2.43c-.207.146-.344.27-.413.374a.598.598 0 0 0-.101.328c0 .18.078.341.233.482.155.14.359.21.608.21.268 0 .57-.105.905-.314-.32-.247-.732-.606-1.232-1.08z"/>
</svg>
