<svg xmlns="http://www.w3.org/2000/svg" width="11" height="11">
    <path d="M9.73 1.109S9.138.554 8.159.687c-.978.134-3.7 1.438-4.965 2.56C1.93 4.37.19 6.168.077 7.363c-.111 1.196-.294 1.714 1.028 3.034 1.322 1.32 4.445.06 4.445.06S8.3 9.204 9.65 6.88c1.352-2.324 1.304-3.308 1.304-3.308s.188-.86-.197-1.612c-.385-.752-.935-.681-.935-.681s-.673.44-1.187 1.007c-.514.566-.505.583-.76.81-.257.226-.651.312-.946.585-.294.272-1.013 2.05-2.337 3.14C3.27 7.91 2.591 8.173 2.261 8.535c-.33.363-.398.743-.647.671-.248-.07-.146-1.374.328-1.78.474-.407.601-.328 1.285-.774.684-.447 1.47-2.603 3.393-4.065C8.542 1.125 9.73 1.11 9.73 1.11z"/>
</svg>
