<svg xmlns="http://www.w3.org/2000/svg" width="11" height="11">
    <path d="M2.252 0v1.606C1.697 1.901.28 3.004.114 3.213c-.159.2-.174 1.65.1 1.606.477-.074 2.095-1.394 2.51-1.104.414.289.295 1.648.323 2.71-.566.736-.757 1.539-1.293 2.134-.263-.242-.543-.473-.845-.778a.457.457 0 0 0-.64.006c-.176.245-.2.544.013.74C1.884 10.148 3.407 11 5.657 11c2.17 0 3.245-.868 4.852-2.49.174-.12.236-.591.087-.741-.148-.15-.522-.164-.64.012-.278.28-.522.5-.77.728-.746-1.017-.649-1.275-1.367-3.69C9.515 4.38 9.88 6.193 11 6.701V4.82c0-.803-1.827-.78-3.181-.452-.261-.351-.796-1.154-2.678-.815-.236-1.142-.627-1.425-1.684-1.946zm1.59 6.426c.795.534 2.629.49 3.181 0 .668.434 1.232 1.657 1.616 2.56-.94.744-1.825 1.104-3.206 1.104-1.363 0-2.216-.314-3.082-.979.651-1.02.748-1.185 1.491-2.685z"/>
</svg>
