<svg xmlns="http://www.w3.org/2000/svg" width="11" height="11">
    <path d="M7.071 0a2.173 2.173 0 0 0-.982 1.817 2.16 2.16 0 0 0 1.179 1.915v6.09c0 .69.41 1.178.982 1.178.573 0 .982-.474.982-1.179V3.732a2.16 2.16 0 0 0 1.179-1.915c0-.758-.392-1.431-.982-1.817v1.179L8.25 2.357 7.071 1.18V0zM3.143 0c-.434 0-.786.299-.786.59H1.18L.196 1.963 1.18 3.34h1.178v6.679c0 .538.296.982.786.982.49 0 .786-.415.786-.982V3.339H5.5V.59H3.929C3.929.293 3.632 0 3.143 0zM8.25 9.429a.393.393 0 1 1 0 .785.393.393 0 0 1 0-.785z"/>
</svg>
