<svg xmlns="http://www.w3.org/2000/svg" width="11" height="11">
    <path visibility="hidden" fill="none" d="M0 0h11v11H0z"/>
    <path d="M4.355 1.002a.996.99 0 0 1-.996.99.996.99 0 0 1-.996-.99.996.99 0 0 1 .996-.99.996.99 0 0 1 .996.99zM9.74 7.727l-2.106.542a1.011 1.011 0 0 1-.35-.016c-.184-.035-.237-.121-.31-.211l-.997-1.643-1.254 1.345.507 2.517a.487.487 0 0 1 .024.134c0 .162-.052.301-.157.418a.486.486 0 0 1-.374.175c-.273 0-.442-.157-.506-.471L3.6 7.462c-.072-.323-.04-.561.096-.713l1.097-1.225-1.193-1.548-.771.862a.364.364 0 0 1-.278.134c-.136 0-.269-.067-.398-.202L.901 3.37a.498.498 0 0 1-.097-.296c0-.134.042-.246.127-.336a.393.393 0 0 1 .295-.135c.113 0 .201.036.266.108l1.036 1.158 1.254-1.4c.096-.108.22-.193.362-.162l2.73.608c.117.026.204.137.292.245l.606 1.045a.44.44 0 0 1 .145.336c0 .126-.04.234-.12.323a.375.375 0 0 1-.29.135.396.396 0 0 1-.313-.161l-.704-1.18-1.144-.193 2.372 3.683 1.934-.555c.152 0 .292.03.396.138.105.108.211.204.211.374a.6.6 0 0 1-.171.414.672.672 0 0 1-.349.208z" fill-rule="evenodd"/>
</svg>
