<?xml version="1.0" encoding="UTF-8" standalone="no"?>
<!-- Generator: Adobe Illustrator 19.2.1, SVG Export Plug-In . SVG Version: 6.00 Build 0)  -->

<svg
   xmlns:dc="http://purl.org/dc/elements/1.1/"
   xmlns:cc="http://creativecommons.org/ns#"
   xmlns:rdf="http://www.w3.org/1999/02/22-rdf-syntax-ns#"
   xmlns:svg="http://www.w3.org/2000/svg"
   xmlns="http://www.w3.org/2000/svg"
   xmlns:sodipodi="http://sodipodi.sourceforge.net/DTD/sodipodi-0.dtd"
   xmlns:inkscape="http://www.inkscape.org/namespaces/inkscape"
   version="1.1"
   id="svg4619"
   inkscape:version="0.91 r13725"
   sodipodi:docname="shop_bakery-11.svg"
   x="0px"
   y="0px"
   width="11"
   height="11"
   viewBox="0 0 11 11"
   xml:space="preserve"><metadata
     id="metadata9"><rdf:RDF><cc:Work
         rdf:about=""><dc:format>image/svg+xml</dc:format><dc:type
           rdf:resource="http://purl.org/dc/dcmitype/StillImage" /><dc:title></dc:title></cc:Work></rdf:RDF></metadata><defs
     id="defs7" /><sodipodi:namedview
     pagecolor="#ffffff"
     bordercolor="#666666"
     borderopacity="1"
     objecttolerance="10"
     gridtolerance="10"
     guidetolerance="10"
     inkscape:pageopacity="0"
     inkscape:pageshadow="2"
     inkscape:window-width="1920"
     inkscape:window-height="1016"
     id="namedview5"
     showgrid="false"
     fit-margin-top="0"
     fit-margin-left="0"
     fit-margin-right="0"
     fit-margin-bottom="0"
     inkscape:zoom="15.733333"
     inkscape:cx="-11.502119"
     inkscape:cy="2.4333333"
     inkscape:window-x="0"
     inkscape:window-y="27"
     inkscape:window-maximized="1"
     inkscape:current-layer="svg4619" /><path
     id="path5230"
     inkscape:connector-curvature="0"
     sodipodi:nodetypes="ccssccccsccsccscsccscc"
     d="M 3.88234,3.6470932 4.4,7.4 c 0,0 0,0.733333 0.7333333,0.733333 l 0.7333334,0 C 6.6,8.133333 6.6,7.4 6.6,7.4 L 7.11766,3.6470932 c 0,-1.01376 -1.61766,-1.01376 -1.61766,-1.01376 0,0 -1.6199333,0 -1.61766,1.01376 z M 2.5666667,4.0999998 c -1.1,0 -1.1,0.7333332 -1.1,0.7333332 L 2.2,7.766667 l 1.1,0 c 0.5536667,0 0.58234,-0.56078 0.58234,-0.56078 L 3.3,4.0999998 l -0.7333333,0 z M 1.1,5.933333 c 0,0 -0.4529067,-0.02156 -0.7764533,0.301987 C 0,6.558793 0,6.88234 0,6.88234 L 0,8.5 0.6470933,8.5 C 1.4666667,8.5 1.4666667,7.766667 1.4666667,7.766667 L 1.1,5.933333 Z" /><path
     id="path5230-2"
     inkscape:connector-curvature="0"
     sodipodi:nodetypes="sccsccscsccscc"
     d="m 8.433333,4.0999998 c 1.1,0 1.1,0.7333332 1.1,0.7333332 L 8.8,7.766667 l -1.1,0 c -0.5536667,0 -0.58234,-0.56078 -0.58234,-0.56078 L 7.7,4.0999998 l 0.733333,0 z M 9.9,5.933333 c 0,0 0.452907,-0.02156 0.776453,0.301987 C 11,6.558793 11,6.88234 11,6.88234 L 11,8.5 10.352907,8.5 C 9.533333,8.5 9.533333,7.766667 9.533333,7.766667 L 9.9,5.933333 Z" /></svg>