<svg xmlns="http://www.w3.org/2000/svg" width="11" height="11">
    <path d="M7.395.002c-.977.113-1.532 1.184-1.602 2.114-.116.828.245 1.883 1.114 2.073.753.068 1.352-.64 1.598-1.315.29-.844.3-1.972-.406-2.605a1.055 1.055 0 0 0-.704-.267zM3.41.046C2.597.105 2.18 1.05 2.237 1.808c.006 1.014.563 2.155 1.579 2.396.757.082 1.262-.722 1.31-1.424.096-1.075-.38-2.377-1.459-2.702A.882.882 0 0 0 3.41.046zm6.532 3.257c-1.09.08-1.78 1.242-1.828 2.293-.057.684.385 1.544 1.129 1.497 1.113-.118 1.784-1.358 1.756-2.436-.007-.62-.4-1.328-1.057-1.354zM.008 4.72c-.1 1.164.714 2.48 1.897 2.553.717-.048 1.055-.88.973-1.54-.065-.972-.715-1.968-1.56-2.098-.845-.13-1.323.467-1.31 1.085zm5.617.993c-1.11.003-2.124.728-2.666 1.71-.454.733-.826 1.563-.896 2.44.015.675.66 1.237 1.306 1.103.922-.12 1.746-.76 2.705-.64.797.063 1.454.681 2.259.672.781.03 1.232-.866.934-1.567-.32-1.004-.942-1.877-1.61-2.664-.532-.58-1.229-1.08-2.032-1.054z"/>
</svg>
