<svg xmlns="http://www.w3.org/2000/svg" version="1" width="11" height="11">
    <path d="M5.5 0a5.5 5.5 0 0 0 0 11 .915.915 0 0 0 .678-1.532.907.907 0 0 1-.228-.607c0-.507.409-.916.916-.916h1.079A3.056 3.056 0 0 0 11 4.889C11 2.19 8.537 0 5.5 0zm1.52 1.025a1.091 1.091 0 0 1 1.09 1.091A1.091 1.091 0 0 1 7.02 3.21a1.091 1.091 0 0 1-1.092-1.093 1.091 1.091 0 0 1 1.091-1.09zm-3.06.015a1.091 1.091 0 0 1 1.092 1.093 1.091 1.091 0 0 1-1.093 1.091 1.091 1.091 0 0 1-1.09-1.09 1.091 1.091 0 0 1 1.09-1.094zM2.126 3.494a1.091 1.091 0 0 1 1.091 1.093 1.091 1.091 0 0 1-1.091 1.091 1.091 1.091 0 0 1-1.091-1.091 1.091 1.091 0 0 1 1.091-1.093zm6.725 0a1.091 1.091 0 0 1 1.09 1.093 1.091 1.091 0 0 1-1.09 1.091A1.091 1.091 0 0 1 7.76 4.587a1.091 1.091 0 0 1 1.092-1.093z"/>
</svg>
