<?xml version="1.0" encoding="UTF-8" standalone="no"?>
<!-- Created with Inkscape (http://www.inkscape.org/) -->

<svg
   xmlns:dc="http://purl.org/dc/elements/1.1/"
   xmlns:cc="http://creativecommons.org/ns#"
   xmlns:rdf="http://www.w3.org/1999/02/22-rdf-syntax-ns#"
   xmlns:svg="http://www.w3.org/2000/svg"
   xmlns="http://www.w3.org/2000/svg"
   xmlns:sodipodi="http://sodipodi.sourceforge.net/DTD/sodipodi-0.dtd"
   xmlns:inkscape="http://www.inkscape.org/namespaces/inkscape"
   version="1.1"
   width="11"
   height="11"
   viewBox="0 0 11 11"
   id="svg2"
   xml:space="preserve"
   inkscape:version="0.91 r13725"
   sodipodi:docname="shop_toys-11.svg"><sodipodi:namedview
     pagecolor="#ffffff"
     bordercolor="#666666"
     borderopacity="1"
     objecttolerance="10"
     gridtolerance="10"
     guidetolerance="10"
     inkscape:pageopacity="0"
     inkscape:pageshadow="2"
     inkscape:window-width="1920"
     inkscape:window-height="1016"
     id="namedview91"
     showgrid="false"
     fit-margin-top="0"
     fit-margin-left="0"
     fit-margin-right="0"
     fit-margin-bottom="0"
     inkscape:zoom="16.857143"
     inkscape:cx="5.5341231"
     inkscape:cy="5.347571"
     inkscape:window-x="0"
     inkscape:window-y="27"
     inkscape:window-maximized="1"
     inkscape:current-layer="svg2" /><metadata
     id="metadata19"><rdf:RDF><cc:Work
         rdf:about=""><dc:format>image/svg+xml</dc:format><dc:type
           rdf:resource="http://purl.org/dc/dcmitype/StillImage" /><dc:title></dc:title></cc:Work></rdf:RDF></metadata><defs
     id="defs4" /><rect
     width="14"
     height="14"
     x="-1.5845211"
     y="-1.347571"
     id="canvas"
     style="visibility:hidden;fill:none;stroke:none" /><path
     d="m 2.2515098,0 0,1.606409 C 1.6971737,1.9011851 0.27952058,3.0039849 0.11409458,3.2128181 -0.04496892,3.412816 -0.06007992,4.8626002 0.21350928,4.8192271 0.69149498,4.7453323 2.3085738,3.4248641 2.7237295,3.7148209 3.1380898,4.0039745 3.018991,5.3629966 3.0468271,6.4256362 2.4810243,7.161003 2.2902228,7.9635576 1.7544365,8.5591482 1.4909264,8.3174118 1.2113454,8.0859716 0.90941188,7.7810438 0.84751488,7.7080969 0.54897128,7.5299343 0.26921148,7.7873924 0.09295948,8.0320452 0.06964268,8.3308976 0.28178398,8.52791 1.8843128,10.146331 3.4071311,11 5.6565868,11 7.8275828,11 8.902298,10.131883 10.509172,8.509074 10.683113,8.3900905 10.74473,7.9185412 10.596182,7.7685148 10.447624,7.6184885 10.073961,7.6053774 9.956146,7.7810438 9.678331,8.0616144 9.434287,8.2817744 9.185682,8.5089479 8.439567,7.4920543 8.537024,7.2336374 7.8187309,4.8192271 9.514575,4.379848 9.881385,6.1933103 11,6.7014434 L 11,4.8192271 C 11,4.0160226 9.173156,4.0389139 7.8187309,4.3674246 7.5576217,4.0160226 7.0234136,3.2128181 5.1410294,3.5515229 4.9052318,2.4096136 4.5135681,2.1270793 3.4571416,1.606409 Z m 1.5906346,6.4256362 c 0.7953173,0.5342898 2.6284104,0.489726 3.1812692,0 C 7.6907662,6.8603891 8.2550539,8.082962 8.638902,8.985851 7.6997832,9.73011 6.8135231,10.090257 5.432779,10.090257 4.0697936,10.090257 3.2170766,9.775621 2.3509245,9.111351 3.0021949,8.0904221 3.0993078,7.926043 3.8421444,6.4256362 Z"
     id="path2529"
     style="fill:#000000;stroke:none"
     inkscape:connector-curvature="0" /></svg>